<?xml version="1.0" encoding="UTF-8" standalone="no"?>
<!DOCTYPE svg PUBLIC "-//W3C//DTD SVG 1.1//EN" "http://www.w3.org/Graphics/SVG/1.1/DTD/svg11.dtd">
<svg width="100%" height="100%" viewBox="0 0 1489 299" version="1.1" xmlns="http://www.w3.org/2000/svg" xmlns:xlink="http://www.w3.org/1999/xlink" xml:space="preserve" xmlns:serif="http://www.serif.com/" style="fill-rule:evenodd;clip-rule:evenodd;stroke-linejoin:round;stroke-miterlimit:2;">
    <rect id="Page-1" serif:id="Page 1" x="0" y="0" width="1488.08" height="298.488" style="fill:none;"/>
    <g id="Page-11" serif:id="Page 1">
        <g id="Ebene-1" serif:id="Ebene 1">
            <g transform="matrix(1,0,0,1,99.4962,129.4)">
                <path d="M0,39.688L9.785,39.688C10.516,46.896 13.222,52.21 17.904,55.632C22.586,59.054 28.445,60.764 35.48,60.764C38.942,60.764 42.188,60.366 45.218,59.567C48.247,58.769 50.832,57.594 52.973,56.042C55.114,54.492 56.81,52.599 58.064,50.363C59.317,48.128 59.943,45.574 59.943,42.7C59.943,40.009 59.567,37.739 58.814,35.891C58.061,34.044 56.967,32.516 55.53,31.307C54.093,30.099 52.37,29.094 50.363,28.295C48.355,27.498 46.075,26.733 43.521,26.003L24.635,20.802C16.971,18.658 11.438,15.533 8.04,11.427C4.642,7.321 2.942,1.893 2.942,-4.859C2.942,-8.417 3.661,-11.736 5.1,-14.816C6.538,-17.895 8.615,-20.552 11.333,-22.788C14.05,-25.022 17.35,-26.768 21.232,-28.022C25.113,-29.277 29.521,-29.904 34.453,-29.904C39.01,-29.904 43.214,-29.323 47.065,-28.159C50.916,-26.996 54.267,-25.228 57.114,-22.856C59.963,-20.484 62.264,-17.541 64.019,-14.029C65.773,-10.516 66.901,-6.478 67.402,-1.917L57.617,-1.917C57.343,-5.383 56.531,-8.349 55.184,-10.812C53.836,-13.276 52.111,-15.26 50.01,-16.766C47.907,-18.271 45.51,-19.366 42.814,-20.051C40.117,-20.735 37.331,-21.077 34.453,-21.077C27.828,-21.077 22.551,-19.685 18.621,-16.902C14.691,-14.118 12.727,-10.013 12.727,-4.585C12.727,-1.663 13.122,0.738 13.913,2.617C14.703,4.496 15.833,6.027 17.301,7.21C18.768,8.393 20.54,9.366 22.619,10.132C24.696,10.897 27.044,11.651 29.665,12.394L45.485,16.801C53.842,19.082 59.972,22.155 63.874,26.024C67.776,29.892 69.729,35.336 69.729,42.357C69.729,46.555 68.874,50.341 67.165,53.716C65.457,57.093 63.109,59.943 60.124,62.27C57.139,64.596 53.539,66.399 49.324,67.676C45.108,68.952 40.585,69.592 35.755,69.592C30.777,69.592 26.233,69.01 22.124,67.847C18.014,66.683 14.418,64.859 11.335,62.373C8.252,59.887 5.729,56.773 3.767,53.032C1.803,49.292 0.547,44.844 0,39.688" style="fill-rule:nonzero;"/>
            </g>
            <g transform="matrix(1,0,0,1,201.438,152.254)">
                <path d="M0,-6.09L41.057,-50.706L54.127,-50.706L11.906,-6.09L57.207,44.616L44.889,44.616L0,-6.09ZM-10.059,-50.706L-0.273,-50.706L-0.273,44.616L-10.059,44.616L-10.059,-50.706Z" style="fill-rule:nonzero;"/>
            </g>
            <g transform="matrix(1,0,0,1,277.329,135.079)">
                <path d="M0,28.33C0,32.436 0.695,36.097 2.088,39.313C3.479,42.529 5.44,45.301 7.973,47.627C10.504,49.954 13.503,51.733 16.971,52.965C20.437,54.196 24.225,54.812 28.33,54.812C32.344,54.812 36.073,54.196 39.519,52.965C42.962,51.733 45.95,49.977 48.482,47.696C51.015,45.415 52.999,42.643 54.436,39.381C55.873,36.121 56.591,32.436 56.591,28.33L56.591,0C56.591,-4.013 55.873,-7.664 54.436,-10.948C52.999,-14.233 51.015,-17.038 48.482,-19.365C45.95,-21.691 42.962,-23.459 39.519,-24.668C36.073,-25.877 32.344,-26.482 28.33,-26.482C24.225,-26.482 20.437,-25.877 16.971,-24.668C13.503,-23.459 10.504,-21.691 7.973,-19.365C5.44,-17.038 3.479,-14.233 2.088,-10.948C0.695,-7.664 0,-4.013 0,0L0,28.33ZM-11.222,14.165C-11.222,6.775 -10.493,0.046 -9.032,-6.021C-7.573,-12.088 -5.258,-17.323 -2.087,-21.726C1.083,-26.128 5.167,-29.537 10.162,-31.956C15.157,-34.374 21.214,-35.583 28.33,-35.583C35.446,-35.583 41.491,-34.374 46.464,-31.956C51.436,-29.537 55.519,-26.128 58.713,-21.726C61.905,-17.323 64.221,-12.088 65.658,-6.021C67.095,0.046 67.813,6.775 67.813,14.165C67.813,21.556 67.095,28.285 65.658,34.352C64.221,40.42 61.905,45.642 58.713,50.022C55.519,54.402 51.425,57.812 46.43,60.252C41.435,62.692 35.4,63.913 28.33,63.913C21.214,63.913 15.157,62.692 10.162,60.252C5.167,57.812 1.083,54.402 -2.087,50.022C-5.258,45.642 -7.573,40.408 -9.032,34.318C-10.493,28.227 -11.222,21.511 -11.222,14.165" style="fill-rule:nonzero;"/>
            </g>
            <g transform="matrix(1,0,0,1,378.436,146.985)">
                <path d="M0,4.448L29.424,4.448C33.348,4.448 36.552,3.285 39.039,0.958C41.524,-1.368 42.768,-4.311 42.768,-7.869L42.768,-24.497C42.768,-28.056 41.593,-30.918 39.244,-33.085C36.894,-35.252 33.621,-36.336 29.424,-36.336L0,-36.336L0,4.448ZM-9.785,49.885L-9.785,-45.437L26.208,-45.437C36.106,-45.437 43.087,-43.098 47.147,-38.423C51.207,-33.746 53.237,-26.413 53.237,-16.423C53.237,-10.993 52.61,-6.364 51.355,-2.531C50.101,1.301 48.287,4.403 45.916,6.775C43.543,9.147 40.601,10.881 37.088,11.975C33.575,13.07 29.538,13.618 24.977,13.618L0,13.618L0,49.885L-9.785,49.885Z" style="fill-rule:nonzero;"/>
            </g>
            <g transform="matrix(1,0,0,1,460.787,135.079)">
                <path d="M0,28.33C0,32.436 0.695,36.097 2.088,39.313C3.479,42.529 5.44,45.301 7.973,47.627C10.504,49.954 13.503,51.733 16.971,52.965C20.437,54.196 24.225,54.812 28.33,54.812C32.344,54.812 36.073,54.196 39.519,52.965C42.962,51.733 45.95,49.977 48.482,47.696C51.015,45.415 52.999,42.643 54.436,39.381C55.873,36.121 56.591,32.436 56.591,28.33L56.591,0C56.591,-4.013 55.873,-7.664 54.436,-10.948C52.999,-14.233 51.015,-17.038 48.482,-19.365C45.95,-21.691 42.962,-23.459 39.519,-24.668C36.073,-25.877 32.344,-26.482 28.33,-26.482C24.225,-26.482 20.437,-25.877 16.971,-24.668C13.503,-23.459 10.504,-21.691 7.973,-19.365C5.44,-17.038 3.479,-14.233 2.088,-10.948C0.695,-7.664 0,-4.013 0,0L0,28.33ZM-11.222,14.165C-11.222,6.775 -10.493,0.046 -9.032,-6.021C-7.573,-12.088 -5.258,-17.323 -2.087,-21.726C1.083,-26.128 5.167,-29.537 10.162,-31.956C15.157,-34.374 21.214,-35.583 28.33,-35.583C35.446,-35.583 41.491,-34.374 46.464,-31.956C51.436,-29.537 55.519,-26.128 58.713,-21.726C61.905,-17.323 64.221,-12.088 65.658,-6.021C67.095,0.046 67.813,6.775 67.813,14.165C67.813,21.556 67.095,28.285 65.658,34.352C64.221,40.42 61.905,45.642 58.713,50.022C55.519,54.402 51.425,57.812 46.43,60.252C41.435,62.692 35.4,63.913 28.33,63.913C21.214,63.913 15.157,62.692 10.162,60.252C5.167,57.812 1.083,54.402 -2.087,50.022C-5.258,45.642 -7.573,40.408 -9.032,34.318C-10.493,28.227 -11.222,21.511 -11.222,14.165" style="fill-rule:nonzero;"/>
            </g>
            <g transform="matrix(1,0,0,1,546.307,129.4)">
                <path d="M0,39.688L9.785,39.688C10.516,46.896 13.222,52.21 17.904,55.632C22.587,59.054 28.445,60.764 35.48,60.764C38.942,60.764 42.188,60.366 45.218,59.567C48.247,58.769 50.832,57.594 52.974,56.042C55.114,54.492 56.811,52.599 58.064,50.363C59.317,48.128 59.943,45.574 59.943,42.7C59.943,40.009 59.567,37.739 58.814,35.891C58.062,34.044 56.967,32.516 55.53,31.307C54.093,30.099 52.37,29.094 50.363,28.295C48.355,27.498 46.075,26.733 43.521,26.003L24.635,20.802C16.971,18.658 11.438,15.533 8.04,11.427C4.642,7.321 2.942,1.893 2.942,-4.859C2.942,-8.417 3.661,-11.736 5.1,-14.816C6.538,-17.895 8.615,-20.552 11.333,-22.788C14.05,-25.022 17.35,-26.768 21.232,-28.022C25.113,-29.277 29.521,-29.904 34.453,-29.904C39.01,-29.904 43.214,-29.323 47.065,-28.159C50.916,-26.996 54.267,-25.228 57.114,-22.856C59.963,-20.484 62.264,-17.541 64.019,-14.029C65.773,-10.516 66.901,-6.478 67.402,-1.917L57.617,-1.917C57.343,-5.383 56.531,-8.349 55.184,-10.812C53.837,-13.276 52.111,-15.26 50.01,-16.766C47.907,-18.271 45.51,-19.366 42.814,-20.051C40.117,-20.735 37.331,-21.077 34.453,-21.077C27.828,-21.077 22.551,-19.685 18.621,-16.902C14.691,-14.118 12.728,-10.013 12.728,-4.585C12.728,-1.663 13.122,0.738 13.913,2.617C14.703,4.496 15.833,6.027 17.301,7.21C18.768,8.393 20.54,9.366 22.619,10.132C24.696,10.897 27.045,11.651 29.665,12.394L45.485,16.801C53.842,19.082 59.972,22.155 63.874,26.024C67.776,29.892 69.729,35.336 69.729,42.357C69.729,46.555 68.874,50.341 67.165,53.716C65.457,57.093 63.109,59.943 60.124,62.27C57.14,64.596 53.539,66.399 49.324,67.676C45.108,68.952 40.586,69.592 35.755,69.592C30.777,69.592 26.233,69.01 22.124,67.847C18.014,66.683 14.418,64.859 11.336,62.373C8.253,59.887 5.729,56.773 3.767,53.032C1.804,49.292 0.547,44.844 0,39.688" style="fill-rule:nonzero;"/>
            </g>
            <g transform="matrix(1,0,0,1,680.761,101.548)">
                <path d="M0,95.322L0,0L65.556,0L65.556,15.465L18.202,15.465L18.202,38.868L59.123,38.868L59.123,54.264L18.202,54.264L18.202,79.926L65.556,79.926L65.556,95.322L0,95.322Z" style="fill-rule:nonzero;"/>
            </g>
            <g transform="matrix(1,0,0,1,767.371,101.548)">
                <path d="M0,95.322L0,0L18.202,0L18.202,79.926L58.575,79.926L58.575,95.322L0,95.322Z" style="fill-rule:nonzero;"/>
            </g>
            <g transform="matrix(1,0,0,1,842.145,101.548)">
                <path d="M0,95.322L0,0L65.556,0L65.556,15.465L18.202,15.465L18.202,38.868L59.123,38.868L59.123,54.264L18.202,54.264L18.202,79.926L65.556,79.926L65.556,95.322L0,95.322Z" style="fill-rule:nonzero;"/>
            </g>
            <g transform="matrix(1,0,0,1,928.755,101.548)">
                <path d="M0,95.322L0,0L29.679,0L48.223,74.867L48.79,74.862L66.992,0L96.827,0L96.827,95.322L79.31,95.322L79.31,19.776L77.672,19.511L58.111,95.322L37.568,95.322L18.014,19.789L17.519,19.789L17.519,95.322L0,95.322Z" style="fill-rule:nonzero;"/>
            </g>
            <g transform="matrix(1,0,0,1,1050.12,101.548)">
                <path d="M0,95.322L0,0L65.556,0L65.556,15.465L18.202,15.465L18.202,38.868L59.123,38.868L59.123,54.264L18.202,54.264L18.202,79.926L65.556,79.926L65.556,95.322L0,95.322Z" style="fill-rule:nonzero;"/>
            </g>
            <g transform="matrix(1,0,0,1,1136.73,101.548)">
                <path d="M0,95.322L0,0L27.183,0L55.7,72.604L56.249,72.604L56.249,0L74.451,0L74.451,95.322L46.995,95.322L18.478,22.582L17.929,22.582L17.929,95.322L0,95.322Z" style="fill-rule:nonzero;"/>
            </g>
            <g transform="matrix(1,0,0,1,1227.5,181.406)">
                <path d="M0,-64.392L0,-79.857L73.767,-79.857L73.767,-64.392L45.984,-64.392L45.984,15.465L27.782,15.465L27.782,-64.392L0,-64.392Z" style="fill-rule:nonzero;"/>
            </g>
            <g transform="matrix(1,0,0,1,1313.04,130.084)">
                <path d="M0,38.32L18.202,38.32C18.932,43.931 21.076,47.934 24.635,50.329C28.193,52.724 32.778,53.922 38.389,53.922C43.727,53.922 48.22,52.816 51.869,50.603C55.519,48.391 57.344,45.186 57.344,40.99C57.344,37.614 56.294,34.923 54.196,32.915C52.098,30.908 48.881,29.357 44.548,28.262L25.935,23.334C18.088,21.281 12.271,17.917 8.485,13.24C4.698,8.565 2.806,2.737 2.806,-4.243C2.806,-8.075 3.627,-11.61 5.27,-14.849C6.912,-18.088 9.227,-20.871 12.215,-23.198C15.202,-25.525 18.841,-27.338 23.129,-28.638C27.417,-29.938 32.23,-30.588 37.568,-30.588C42.403,-30.588 46.908,-30.029 51.083,-28.912C55.257,-27.793 58.884,-26.072 61.963,-23.745C65.042,-21.419 67.563,-18.43 69.524,-14.781C71.485,-11.131 72.694,-6.843 73.151,-1.916L54.949,-1.916C54.675,-4.517 54.002,-6.706 52.931,-8.486C51.857,-10.265 50.523,-11.69 48.927,-12.763C47.33,-13.834 45.528,-14.576 43.521,-14.986C41.514,-15.397 39.438,-15.602 37.294,-15.602C32.23,-15.602 28.25,-14.6 25.354,-12.597C22.456,-10.593 21.008,-7.86 21.008,-4.4C21.008,-0.757 22.137,2.008 24.397,3.898C26.658,5.788 30.07,7.347 34.637,8.577L50.86,12.801C58.975,14.95 65.117,18.197 69.289,22.541C73.46,26.883 75.546,32.987 75.546,40.852C75.546,45.231 74.656,49.155 72.877,52.622C71.099,56.089 68.577,59.031 65.316,61.449C62.054,63.867 58.153,65.715 53.614,66.992C49.074,68.268 44.091,68.908 38.663,68.908C33.325,68.908 28.398,68.349 23.882,67.231C19.366,66.114 15.396,64.335 11.976,61.894C8.554,59.454 5.793,56.295 3.695,52.416C1.597,48.539 0.365,43.84 0,38.32" style="fill-rule:nonzero;"/>
            </g>
        </g>
    </g>
</svg>
